<?xml version="1.0" encoding="UTF-8" standalone="no"?>
<svg
   xmlns:dc="http://purl.org/dc/elements/1.1/"
   xmlns:cc="http://creativecommons.org/ns#"
   xmlns:rdf="http://www.w3.org/1999/02/22-rdf-syntax-ns#"
   xmlns:svg="http://www.w3.org/2000/svg"
   xmlns="http://www.w3.org/2000/svg"
   viewBox="0 0 274.39999 324.07999"
   height="324.07999"
   width="274.39999"
   xml:space="preserve"
   id="svg2"
   version="1.1"><metadata
     id="metadata8"><rdf:RDF><cc:Work
         rdf:about=""><dc:format>image/svg+xml</dc:format><dc:type
           rdf:resource="http://purl.org/dc/dcmitype/StillImage" /></cc:Work></rdf:RDF></metadata><defs
     id="defs6"><clipPath
       id="clipPath58"
       clipPathUnits="userSpaceOnUse"><path
         id="path56"
         d="m 859.586,461.949 c -15.707,13 -31.445,25.992 -47.184,38.949 1.254,0.993 2.52,1.961 3.809,2.922 14.184,-14.23 28.695,-28.14 43.375,-41.871" /></clipPath></defs><g
     transform="matrix(1.3333333,0,0,-1.3333333,0,324.08)"
     id="g10"><g
       transform="scale(0.1)"
       id="g12"><path
         id="path14"
         style="fill:#ffffff;fill-opacity:1;fill-rule:evenodd;stroke:none"
         d="m 1640.7,706.859 -53.19,-99 c 0,0 -236.43,-205.199 -309.69,-249.211 -73.35,-44.007 -192.42,-108.179 -192.42,-108.179 0,0 -167.49,172.801 -290.521,281.793 C 666.809,645.66 288.09,970.738 288.09,970.738 l 18.359,62.372 351.903,-289.622 c 0,0 317.07,-271.258 436.138,-410.488 93.42,52.559 247.5,148.41 298.8,185.129 51.3,36.633 212.58,150.211 247.41,188.73" /><path
         id="path16"
         style="fill:#ffffff;fill-opacity:1;fill-rule:evenodd;stroke:none"
         d="m 237.051,1222.86 c 65.433,-13.15 115.09,-42.03 115.84,-119.84 102.894,64.82 223.441,144.97 351.507,211.7 53.715,27.97 140.543,34.71 131.801,111.84 -4.219,37.36 -47.191,81.33 -103.851,75.87 -39.289,-3.76 -93.309,-35.27 -135.801,-59.89 -41.328,-23.98 -79.336,-53.28 -115.84,-75.9 -87.578,-54.3 -175.867,-88.91 -243.656,-143.78" /><path
         id="path18"
         style="fill:#231f20;fill-opacity:1;fill-rule:evenodd;stroke:none"
         d="m 660.453,1134.97 c 20.231,-7.74 33.973,26.36 51.918,39.94 37.141,28.08 90.426,50.6 127.82,75.9 2.118,3.22 4.168,6.48 3.997,11.99 -3.563,3.08 -9.016,4.29 -15.969,3.97 -54.883,-44.99 -126.317,-73.42 -167.766,-131.8" /><path
         id="path20"
         style="fill:#231f20;fill-opacity:1;fill-rule:evenodd;stroke:none"
         d="m 904.109,1222.86 c -2.668,0 -5.32,0 -7.988,0 -62.73,-25.61 -113.801,-66.88 -167.762,-103.87 -16.648,-11.42 -40.199,-19.33 -47.929,-39.93 80.195,42.27 151.968,93.02 223.679,143.8" /><path
         id="path22"
         style="fill:#231f20;fill-opacity:1;fill-rule:evenodd;stroke:none"
         d="M 1023.94,1134.97 C 915.691,1047.48 774.078,993.371 696.402,875.332 790.57,971.57 911.016,1041.5 1023.94,1118.99 c 4.63,5.92 4.63,10.06 0,15.98" /><path
         id="path24"
         style="fill:#ffffff;fill-opacity:1;fill-rule:evenodd;stroke:none"
         d="m 237.059,1115.01 c -8.547,-8.73 -10.981,-23.67 -19.981,-31.95 26.731,-121.322 109.621,-188.099 191.703,-263.611 84.508,-77.847 168.117,-147.961 259.649,-219.777 21.691,-16.922 43.922,-36.902 63.898,-55.891 14.852,-14.043 35.551,-50.039 63.902,-35.91 2.79,17.461 -17.46,25.918 -27.902,35.91 -154.348,147.059 -342,284.938 -499.316,431.457 20.34,39.602 40.226,141.302 -31.953,139.772" /><path
         id="path26"
         style="fill:#231f20;fill-opacity:1;fill-rule:evenodd;stroke:none"
         d="M 1059.89,1047.09 C 940.141,976.43 822.473,903.73 728.359,807.441 c 53.571,32.59 103.868,81.149 163.766,119.84 57.566,37.149 118.885,75.429 167.765,119.809" /><path
         id="path28"
         style="fill:#231f20;fill-opacity:1;fill-rule:evenodd;stroke:none"
         d="m 392.852,931.23 c -6.84,1.532 -7.563,-3.058 -8.012,-8.011 C 527.488,815.582 656.461,694.262 804.238,591.75 669.512,707.309 533.07,821.16 392.852,931.23" /><path
         id="path30"
         style="fill:#231f20;fill-opacity:1;fill-rule:evenodd;stroke:none"
         d="m 816.23,775.48 c 50.989,38.211 95.297,83.11 163.774,103.852 C 912.52,889.172 855.105,820.738 816.23,775.48" /><path
         id="path32"
         style="fill:#231f20;fill-opacity:1;fill-rule:evenodd;stroke:none"
         d="m 1015.95,567.75 c 107.32,87.07 225.25,163.57 335.53,247.66 -105.42,-42.39 -191.53,-138.621 -295.56,-195.73 -9.04,-19.629 -44.01,-32.219 -39.97,-51.93" /><path
         id="path34"
         style="fill:#231f20;fill-opacity:1;fill-rule:evenodd;stroke:none"
         d="m 1395.41,763.488 c -57.58,-37.226 -116.13,-75.308 -171.77,-115.84 -55,-40.058 -116.72,-75.449 -159.78,-127.808 111.5,80.23 230.85,152.621 331.55,243.648" /><path
         id="path36"
         style="fill:#ffffff;fill-opacity:1;fill-rule:evenodd;stroke:none"
         d="m 1395.45,763.469 c -57.6,-37.168 -116.19,-75.328 -171.81,-115.828 -54.99,-40.051 -116.73,-75.422 -159.75,-127.801 111.51,80.191 230.85,152.64 331.56,243.629 m -379.53,-195.75 c 107.37,87.121 225.27,163.621 335.52,247.679 -105.39,-42.386 -191.52,-138.597 -295.56,-195.75 -9,-19.617 -44.01,-32.218 -39.96,-51.929 M 816.211,775.441 c 51.027,38.25 95.309,83.161 163.801,103.86 -67.5,9.898 -124.922,-58.59 -163.801,-103.86 M 1195.65,947.25 C 1112.4,893.43 1027.89,840.781 948.059,783.449 c 41.671,17.281 86.941,44.91 131.761,71.91 41.76,25.11 89.19,54.633 115.83,91.891 m -135.72,99.81 C 940.141,976.41 822.512,903.691 728.371,807.48 c 53.551,32.579 103.859,81.09 163.707,119.79 57.602,37.171 118.892,75.42 167.852,119.79 m -36,87.93 C 915.66,1047.51 774.09,993.332 696.422,875.34 c 94.137,96.211 214.558,166.14 327.508,243.63 4.68,5.94 4.68,10.08 0,16.02 m -119.789,87.84 c -2.7,0 -5.313,0 -8.012,0 -62.731,-25.56 -113.848,-66.87 -167.758,-103.86 -16.652,-11.43 -40.23,-19.35 -47.973,-39.87 80.192,42.21 152.012,92.97 223.743,143.73 m -243.719,-87.84 c 20.25,-7.74 34.019,26.37 51.93,39.96 37.168,28.08 90.449,50.58 127.796,75.87 2.161,3.24 4.231,6.48 4.051,11.97 -3.597,3.06 -9,4.32 -16.019,3.96 -54.809,-45 -126.27,-73.44 -167.758,-131.76 M 608.488,803.43 c -56.879,48.961 -117,92.879 -163.707,147.781 2.25,-5.762 6.207,-9.723 11.969,-11.973 -37.352,42.481 -71.371,88.382 -127.801,111.872 23.223,-44.73 87.93,-60.028 95.852,-107.911 -44.461,33.211 -92.973,63.721 -115.832,107.911 13.859,3.42 15.121,-0.18 27.902,8.01 94.949,88.38 214.289,159.21 339.57,223.65 39.418,20.25 99.719,59.13 135.809,55.89 28.711,-2.52 78.121,-45.63 111.871,-67.86 C 1178.37,1103.04 1431.18,905.762 1627.11,707.582 1477.89,557.191 1277.01,458.551 1095.84,340.109 946.621,505.441 775.531,659.699 608.488,803.43" /><path
         id="path38"
         style="fill:#ffffff;fill-opacity:1;fill-rule:evenodd;stroke:none"
         d="m 320.941,1071.09 c 45.539,56.16 -22.589,143.46 -91.89,139.77 -49.77,-2.61 -78.93,-50.4 -71.91,-107.82 10.437,-84.78 61.019,-154.528 119.879,-219.688 70.742,-78.481 136.621,-141.122 203.671,-203.762 31.95,-29.789 60.118,-71.102 95.848,-91.891 -49.59,58.68 -160.109,168.211 -235.617,243.723 -26.551,26.547 -60.75,54 -79.922,79.828 -36.449,49.141 -93.871,154.8 -79.828,215.73 17.367,75.6 106.738,44.73 135.719,-3.96 13.05,-21.51 -11.879,-37.71 4.05,-51.93" /><path
         id="path40"
         style="fill:#ffffff;fill-opacity:1;fill-rule:evenodd;stroke:none"
         d="m 237.059,1130.94 c 39.871,6.66 48.152,-18.36 67.863,-31.95 -14.492,61.83 -118.172,93.51 -111.781,-7.92 2.789,-44.91 39.871,-122.488 59.937,-151.832 24.301,-35.636 71.641,-64.707 107.82,-103.859 101.704,-110.25 233.461,-243.27 331.473,-343.527 17.188,6.929 27.539,20.429 44.008,27.988 -52.469,58.59 -128.699,109.711 -179.82,151.742 -21.329,17.637 -33.84,37.797 -43.918,39.957 6.57,-1.437 23.578,-32.039 31.949,-39.957 26.191,-24.66 66.148,-50.582 87.93,-75.871 -102.961,66.328 -213.481,184.051 -303.571,275.578 -48.687,49.5 -88.289,100.441 -111.871,159.841 -15.566,39.15 -16.469,76.68 19.981,99.81" /><path
         id="path42"
         style="fill:#231f20;fill-opacity:1;fill-rule:evenodd;stroke:none"
         d="m 1195.69,947.238 c -83.3,-53.828 -167.82,-106.457 -247.647,-163.769 41.703,17.25 86.987,44.883 131.807,71.902 41.74,25.129 89.14,54.641 115.84,91.867" /><path
         id="path44"
         style="fill:#231f20;fill-opacity:1;fill-rule:evenodd;stroke:none"
         d="M 692.371,659.609 C 722.789,592.832 807.301,545.488 860.129,487.891 821.34,546.211 746.91,603.629 692.371,659.609" /><path
         id="path46"
         style="fill:#231f20;fill-opacity:1;fill-rule:evenodd;stroke:none"
         d="m 1547.19,587.699 c -39.78,-30.687 -74.88,-66.148 -115.83,-95.847 38.7,16.019 86.13,57.687 115.83,95.847 M 237.059,1115.01 c -8.547,-8.73 -10.981,-23.67 -19.981,-31.95 26.731,-121.322 109.621,-188.099 191.703,-263.611 84.508,-77.847 168.117,-147.961 259.649,-219.777 21.691,-16.922 43.922,-36.902 63.898,-55.891 14.852,-14.043 35.551,-50.039 63.902,-35.91 2.79,17.461 -17.46,25.918 -27.902,35.91 -154.348,147.059 -342,284.938 -499.316,431.457 20.34,39.602 40.226,141.302 -31.953,139.772 m 0,15.93 c 39.871,6.66 48.152,-18.36 67.863,-31.95 -14.492,61.83 -118.172,93.51 -111.781,-7.92 2.789,-44.91 39.871,-122.488 59.937,-151.832 24.301,-35.636 71.641,-64.707 107.82,-103.859 101.704,-110.25 233.461,-243.27 331.473,-343.527 17.188,6.929 27.539,20.429 44.008,27.988 -52.469,58.59 -128.699,109.711 -179.82,151.742 -21.329,17.637 -33.84,37.797 -43.918,39.957 6.57,-1.437 23.578,-32.039 31.949,-39.957 26.191,-24.66 66.148,-50.582 87.93,-75.871 -102.961,66.328 -213.481,184.051 -303.571,275.578 -48.687,49.5 -88.289,100.441 -111.871,159.841 -15.566,39.15 -16.469,76.68 19.981,99.81 m 83.882,-59.85 c 45.539,56.16 -22.589,143.46 -91.89,139.77 -49.77,-2.61 -78.93,-50.4 -71.91,-107.82 10.437,-84.78 61.019,-154.528 119.879,-219.688 70.742,-78.481 136.621,-141.122 203.671,-203.762 31.95,-29.789 60.118,-71.102 95.848,-91.891 -49.59,58.68 -160.109,168.211 -235.617,243.723 -26.551,26.547 -60.75,54 -79.922,79.828 -36.449,49.141 -93.871,154.8 -79.828,215.73 17.367,75.6 106.738,44.73 135.719,-3.96 13.05,-21.51 -11.879,-37.71 4.05,-51.93 M 1095.84,340.109 c 181.17,118.442 382.05,217.082 531.27,367.473 -195.93,198.18 -448.74,395.458 -702.989,563.218 -33.75,22.23 -83.16,65.34 -111.871,67.86 -36.09,3.24 -96.391,-35.64 -135.809,-55.89 -125.281,-64.44 -244.621,-135.27 -339.57,-223.65 -12.781,-8.19 -14.043,-4.59 -27.902,-8.01 22.859,-44.19 71.371,-74.7 115.832,-107.911 -7.922,47.883 -72.629,63.181 -95.852,107.911 56.43,-23.49 90.449,-69.391 127.801,-111.872 -5.762,2.25 -9.719,6.211 -11.969,11.973 C 491.488,896.309 551.609,852.391 608.488,803.43 775.531,659.699 946.621,505.441 1095.84,340.109 M 237.059,1222.83 c 65.429,-13.14 115.113,-42.03 115.832,-119.79 102.871,64.8 223.468,144.99 351.539,211.68 53.73,27.99 140.492,34.74 131.761,111.87 -4.23,37.35 -47.16,81.27 -103.863,75.87 -39.238,-3.78 -93.328,-35.28 -135.808,-59.94 -41.309,-23.94 -79.29,-53.28 -115.829,-75.87 -87.57,-54.27 -175.863,-88.92 -243.632,-143.82 M 1615.14,627.66 C 1455.57,481.051 1289.43,340.832 1087.83,236.25 1008.45,336.602 905.941,413.82 816.211,503.82 803.25,494.191 792.359,482.492 776.25,475.922 c -9.898,10.078 -12.871,27 -31.949,27.898 -17.012,-6.929 -27.09,-20.789 -47.879,-23.941 -8.102,13.23 -25.563,17.101 -43.922,19.98 -133.109,126.903 -278.73,247.68 -403.469,387.45 -9.543,10.711 -13.5,30.242 -23.941,43.921 -32.578,42.661 -67.141,83.25 -79.918,143.82 14.937,30.78 -3.152,74.25 8.008,111.87 113.308,79.38 293.851,179.91 431.371,259.65 44.64,25.83 112.32,70.56 159.75,71.82 83.699,2.34 137.34,-108 83.879,-167.76 275.94,-173.07 537.3,-376.021 766.98,-591.118 23.94,-22.41 59.4,-45.364 63.9,-71.91 -6.57,-1.801 -9.72,0.988 -12.15,3.687 -3.24,3.602 -5.13,7.199 -11.79,0.27 C 1534.05,597.781 1423.89,523.352 1299.6,451.98 1229.13,411.48 1169.01,356.309 1095.84,324.09 862.828,581.129 585.539,793.801 312.93,1011.15 c -4.321,-8.91 -6.571,-20.068 -11.969,-27.99 251.277,-250.738 536.937,-466.918 786.869,-718.922 199.8,71.192 324.63,246.242 479.34,359.461 23.22,17.012 49.14,43.563 67.95,39.961 8.28,-9.808 -68.67,-45.988 -19.98,-36" /><path
         id="path48"
         style="fill:#ffffff;fill-opacity:1;fill-rule:evenodd;stroke:none"
         d="m 1547.19,587.699 c -39.78,-30.687 -74.88,-66.148 -115.83,-95.847 38.7,16.019 86.13,57.687 115.83,95.847" /><path
         id="path50"
         style="fill:#231f20;fill-opacity:1;fill-rule:evenodd;stroke:none"
         d="m 844.199,551.789 c 31.68,-49.141 87.391,-88.559 131.762,-135.809 44.459,-47.16 76.859,-107.191 131.849,-139.769 23.04,36.809 74.25,45.539 99.9,79.828 67.95,34.473 124.83,80.191 183.69,123.84 -54.09,-10.617 -99.9,-58.141 -147.78,-91.891 -47.88,-33.75 -100.89,-62.187 -147.78,-95.847 -73.71,96.66 -160.379,180.539 -251.641,259.648" /><g
         id="g52"><g
           clip-path="url(#clipPath58)"
           id="g54"><path
             id="path60"
             style="fill:#d3cf93;fill-opacity:1;fill-rule:nonzero;stroke:none"
             d="m 812.402,461.949 h 47.1836 v 41.8711 H 812.402 Z" /></g></g><path
         id="path62"
         style="fill:#d3cf93;fill-opacity:1;fill-rule:nonzero;stroke:none"
         d="m 1095.55,267.059 c -6.4,1.711 -12.66,4.589 -18.79,8.293 -247.276,247.269 -528.217,460.757 -775.799,707.808 5.398,7.922 7.648,19.08 11.969,27.99 159,-126.771 319.593,-251.959 472.062,-385.271 17.446,-18.731 34.977,-37.309 52.817,-55.457 20.703,-21.051 39.703,-43 58.621,-65 -17.2,15.668 -34.629,31.109 -52.231,46.367 31.68,-49.141 87.391,-88.559 131.762,-135.809 44.459,-47.16 76.859,-107.191 131.849,-139.769 23.04,36.809 74.25,45.539 99.9,79.828 67.95,34.473 124.83,80.191 183.69,123.84 -54.09,-10.617 -99.9,-58.141 -147.78,-91.891 -47.88,-33.75 -100.89,-62.187 -147.78,-95.847 -3.97,5.211 -7.99,10.379 -12.04,15.507 8.78,8.422 17.88,16.223 27.26,23.563 35.18,17.348 67.59,39.629 100.03,62.34 26.03,14.109 52.46,28.07 78.34,43.941 20.52,12.567 41.51,28.707 63.07,45.61 45.86,27.66 89.78,56.117 132.02,86.257 7.84,3.051 15.77,5.602 23.77,7.563 C 1380.77,468.48 1265.21,330.379 1095.55,267.059 M 692.371,659.609 C 722.789,592.832 807.301,545.488 860.129,487.891 821.34,546.211 746.91,603.629 692.371,659.609 M 390.426,931.531 c -4.602,0 -5.196,-4.019 -5.586,-8.312 C 527.488,815.582 656.461,694.262 804.238,591.75 669.512,707.309 533.07,821.16 392.852,931.23 c -0.914,0.2 -1.719,0.301 -2.426,0.301" /><path
         id="path64"
         style="fill:#d3cf93;fill-opacity:1;fill-rule:nonzero;stroke:none"
         d="m 796.227,514.199 c -118.157,97.063 -237.235,192.633 -358.106,285 -15.246,11.66 -30.656,23.449 -46.027,35.5 -76.371,69.563 -150.098,135.27 -175.016,248.361 9,8.28 11.434,23.22 19.981,31.95 0.543,0.01 1.07,0.02 1.601,0.02 37.332,0 49.266,-28.36 49.215,-60.84 -0.043,-28.66 -9.402,-60.53 -18.863,-78.952 v 0 0 C 426.328,828.719 613.98,690.84 768.328,543.781 c 9.098,-8.699 25.629,-16.242 27.899,-29.582" /><path
         id="path66"
         style="fill:#211d16;fill-opacity:1;fill-rule:nonzero;stroke:none"
         d="M 804.238,591.75 C 656.461,694.262 527.488,815.582 384.84,923.219 c 0.39,4.293 0.984,8.312 5.586,8.312 0.707,0 1.512,-0.101 2.426,-0.301 C 533.07,821.16 669.512,707.309 804.238,591.75" /><path
         id="path68"
         style="fill:#d3cf93;fill-opacity:1;fill-rule:nonzero;stroke:none"
         d="m 632.309,782.891 c -7.95,6.871 -15.887,13.718 -23.821,20.539 -8.011,6.902 -16.09,13.691 -24.183,20.429 16.476,-13.078 32.441,-26.8 48.004,-40.968 M 424.801,943.199 c -33.238,24.832 -68.738,48.153 -94.09,76.801 29.961,-25.77 61.699,-51.09 93.922,-75.898 0.055,-0.301 0.117,-0.602 0.168,-0.903" /><path
         id="path70"
         style="fill:#d3cf93;fill-opacity:1;fill-rule:nonzero;stroke:none"
         d="m 185.387,1062.6 c -1.789,3.67 -3.528,7.37 -5.207,11.1 -23.309,51.75 -19.621,132.12 58.59,133.29 0.273,0 0.539,0.01 0.812,0.01 55.402,0 97.836,-82.3 81.27,-125.47 l -2.856,-7.18 c -1.937,2.77 -2.621,5.61 -2.578,8.55 0.109,8 5.516,16.76 5.41,26.73 -0.047,4.23 -1.082,8.68 -3.937,13.39 -16.43,27.6 -52.262,49.48 -83.387,49.48 -23.777,0 -44.813,-12.78 -52.332,-45.52 -1.43,-6.19 -2.117,-12.84 -2.164,-19.84 -0.098,-13.75 2.273,-28.86 6.379,-44.54" /><path
         id="path72"
         style="fill:#d3cf93;fill-opacity:1;fill-rule:nonzero;stroke:none"
         d="m 255.43,959.238 c -13.813,15.782 -26.746,32.231 -38.551,49.492 -12.238,28.84 -22.332,59.73 -23.738,82.34 -0.188,2.95 -0.282,5.77 -0.286,8.5 -0.07,40.83 19.625,57 42.641,57 28.317,0 61.664,-24.46 69.426,-57.58 -17.469,12.04 -25.953,33.06 -55.399,33.06 -3.785,0 -7.921,-0.35 -12.464,-1.11 -21.641,-13.73 -30.118,-32.54 -30.172,-53.75 -0.035,-14.52 3.867,-30.16 10.191,-46.06 10.055,-25.32 23.016,-49.099 38.352,-71.892" /><path
         id="path74"
         style="fill:#211d16;fill-opacity:1;fill-rule:nonzero;stroke:none"
         d="M 860.129,487.891 C 807.301,545.488 722.789,592.832 692.371,659.609 746.91,603.629 821.34,546.211 860.129,487.891" /><path
         id="path76"
         style="fill:#211d16;fill-opacity:1;fill-rule:nonzero;stroke:none"
         d="m 1108.72,265.309 c -0.39,0 -0.79,0 -1.18,0.011 -4.05,0.071 -8.05,0.692 -11.99,1.739 169.66,63.32 285.22,201.421 412.74,309.863 10.12,2.469 20.37,4 30.76,4.387 -36.49,-29.149 -69.55,-61.797 -107.69,-89.457 v 0 0 c 36.57,15.136 80.94,53.187 110.78,89.539 0.3,0 0.61,0.007 0.91,0.007 -82.26,-92.25 -198.54,-171.628 -299.61,-239.668 -37.3,-25.07 -88.93,-76.421 -134.72,-76.421 m -31.96,10.043 c -26.84,16.23 -51.12,48.238 -72.81,66.378 -48.032,40.192 -96.13,80.301 -144.364,120.219 -14.68,13.731 -29.191,27.641 -43.375,41.871 -1.289,-0.961 -2.555,-1.929 -3.809,-2.922 -5.39,4.434 -10.781,8.872 -16.175,13.301 -2.27,13.34 -18.801,20.883 -27.899,29.582 -154.348,147.059 -342,284.938 -499.316,431.457 v 0 c 9.461,18.422 18.82,50.292 18.863,78.952 0.051,32.48 -11.883,60.84 -49.215,60.84 -0.531,0 -1.058,-0.01 -1.601,-0.02 -8.547,-8.73 -10.981,-23.67 -19.981,-31.95 v 0 c 24.918,-113.091 98.645,-178.798 175.016,-248.361 -48.352,37.922 -96.223,78.34 -136.664,124.539 -15.336,22.793 -28.297,46.572 -38.352,71.892 -6.324,15.9 -10.226,31.54 -10.191,46.06 0.054,21.21 8.531,40.02 30.172,53.75 4.543,0.76 8.679,1.11 12.464,1.11 29.446,0 37.93,-21.02 55.399,-33.06 v 0 0 0 c -7.762,33.12 -41.109,57.58 -69.426,57.58 -23.016,0 -42.711,-16.17 -42.641,-57 0.004,-2.73 0.098,-5.55 0.286,-8.5 1.406,-22.61 11.5,-53.5 23.738,-82.34 -11.707,17.12 -22.301,35.04 -31.492,53.87 -4.106,15.68 -6.477,30.79 -6.379,44.54 0.047,7 0.734,13.65 2.164,19.84 7.519,32.74 28.555,45.52 52.332,45.52 31.125,0 66.957,-21.88 83.387,-49.48 2.855,-4.71 3.89,-9.16 3.937,-13.39 0.106,-9.97 -5.301,-18.73 -5.41,-26.73 -0.043,-2.94 0.641,-5.78 2.578,-8.55 l -12.715,-31.97 c 8.309,-7.5 16.793,-14.96 25.43,-22.38 25.352,-28.648 60.852,-51.969 94.09,-76.801 v 0 0 0 c -0.051,0.301 -0.113,0.602 -0.168,0.903 48.199,-37.114 97.496,-73.102 143.629,-107.821 5.406,-4.07 10.746,-8.211 16.043,-12.422 8.093,-6.738 16.172,-13.527 24.183,-20.429 7.934,-6.821 15.871,-13.668 23.821,-20.539 53.804,-49.02 102.906,-103.59 152.683,-157.012 -152.469,133.312 -313.062,258.5 -472.062,385.271 -4.321,-8.91 -6.571,-20.068 -11.969,-27.99 C 548.543,736.109 829.484,522.621 1076.76,275.352 m 34.3,55.859 c 31.11,24.309 65.21,43.469 100.03,62.34 -32.44,-22.711 -64.85,-44.992 -100.03,-62.34 m 241.44,151.891 c 41.68,32.668 85.47,68.187 132.02,86.257 -42.24,-30.14 -86.16,-58.597 -132.02,-86.257" /><path
         id="path78"
         style="fill:#d3cf93;fill-opacity:1;fill-rule:nonzero;stroke:none"
         d="m 1431.36,491.852 v 0 c 38.14,27.66 71.2,60.308 107.69,89.457 1.03,0.031 2.06,0.062 3.09,0.082 -29.84,-36.352 -74.21,-74.403 -110.78,-89.539" /><path
         id="path80"
         style="fill:#211d16;fill-opacity:1;fill-rule:nonzero;stroke:none"
         d="M 1107.81,276.211 C 1052.82,308.789 1020.42,368.82 975.961,415.98 931.59,463.23 875.879,502.648 844.199,551.789 861.801,536.531 879.23,521.09 896.43,505.422 916.418,482.18 936.32,458.879 958.051,436.5 995.219,398.16 1059.3,351 1076.22,300.148 c 2.5,2.551 5.03,5.051 7.58,7.5 4.05,-5.128 8.07,-10.296 12.04,-15.507 46.89,33.66 99.9,62.097 147.78,95.847 47.88,33.75 93.69,81.274 147.78,91.891 -58.86,-43.649 -115.74,-89.367 -183.69,-123.84 -25.65,-34.289 -76.86,-43.019 -99.9,-79.828" /><path
         id="path82"
         style="fill:#ffffff;fill-opacity:1;fill-rule:evenodd;stroke:none"
         d="m 1900.8,2157.93 -36.27,23.76 c 0,0 -55.89,-66.24 -70.38,-88.65 -10.71,-11.34 -37.89,-0.63 -70.11,-35.37 -13.68,-14.67 -164.52,-308.52 -164.52,-308.52 l -66.87,-133.74 -0.18,0.09 -3.06,-6.57 -2.34,-4.77 h 0.09 l -89.55,-192.87 -76.86,-177.48 -53.37,-120.51 -25.11,-55.08 -51.66,-120.689 -16.83,-76.051 4.23,-28.082 10.98,-10.168 32.22,10.442 44.1,47.16 121.86,188.188 208.08,380.97 37.89,72.81 c 19.53,-20.88 25.83,-18.99 69.48,47.34 43.02,65.52 159.21,288.54 172.98,341.01 13.77,52.47 10.08,109.89 -21.06,133.02 0,26.28 46.26,113.76 46.26,113.76" /><path
         id="path84"
         style="fill:#231f20;fill-opacity:1;fill-rule:evenodd;stroke:none"
         d="m 1862.28,2169.27 c -36.18,-38.52 -79.65,-106.2 -14.04,-126.18 6.93,33.57 31.86,70.83 42.75,113.58 -3.78,7.2 -18.63,8.64 -28.71,12.6 m 50.58,-12.24 c -22.5,-38.25 -28.53,-78.12 -55.89,-109.44 -0.09,-7.29 16.38,-6.12 9,-17.28 -39.87,-5.94 -78.39,26.01 -88.56,53.01 -15.48,-10.89 -37.62,-8.91 -46.44,-32.67 17.37,-29.52 63,-44.28 86.76,-70.56 -21.33,-6.84 -38.97,3.69 -56.61,14.13 -15.84,9.45 -31.68,18.9 -50.13,15.57 -96.39,-146.34 -174.78,-327.24 -259.74,-495.27 19.44,-16.92 35.64,-45.09 65.61,-56.79 15.3,-5.94 49.68,5.22 47.52,-22.05 -5.76,-4.14 -13.68,-3.96 -21.6,-3.87 -13.41,0.18 -26.82,0.36 -29.34,-20.16 7.38,-5.31 30.42,-2.43 24.39,-14.85 -29.88,-22.86 -79.83,12.33 -111.15,27.45 -27,-9.18 -30.06,-39.6 -41.49,-63.18 -72.63,-150.3 -144.18,-313.74 -195.75,-464.582 -8.91,-26.367 -22.14,-56.609 5.58,-63.359 15.21,-3.688 49.5,31.5 62.64,49.32 37.98,51.75 71.73,109.801 106.2,166.231 87.57,143.64 167.22,324.36 259.56,448.29 -57.96,-133.92 -159.12,-284.22 -231.3,-439.02 -57.6,-74.52 -105.3,-167.938 -167.31,-234.18 -14.13,-2.879 -24.66,-12.598 -37.98,-17.098 -9.81,-14.672 -16.74,-34.832 -33.21,-36.723 -3.69,19.442 13.5,44.371 19.62,62.731 0.72,13.41 -8.1,21.601 -7.29,34.922 11.97,81.179 54.45,150.568 88.74,226.078 63.09,139.32 109.08,291.69 179.46,400.77 9.81,-30.78 16.92,-62.91 59.4,-76.59 6.84,6.48 8.55,22.41 15.93,27.72 -28.35,15.48 -51.21,48.6 -63.63,63.36 -3.33,-5.94 -5.58,-13.95 -14.04,-10.17 13.41,58.59 44.73,91.44 70.56,144.72 56.61,116.55 129.78,279.18 189.81,375.84 25.65,41.22 55.08,80.28 90.63,69.57 31.41,26.19 48.51,79.65 80.1,105.48 27.9,-12.6 35.55,-18.72 49.95,-37.35" /><path
         id="path86"
         style="fill:#ffffff;fill-opacity:1;fill-rule:evenodd;stroke:none"
         d="m 1862.28,2169.27 c -36.18,-38.52 -79.65,-106.2 -14.04,-126.18 6.93,33.57 31.86,70.83 42.75,113.58 -3.78,7.2 -18.63,8.64 -28.71,12.6" /><path
         id="path88"
         style="fill:#231f20;fill-opacity:1;fill-rule:evenodd;stroke:none"
         d="m 1869.3,2029.32 c -6.12,-28.17 13.86,-54.45 9.36,-86.31 -2.52,-17.64 -10.62,-36.72 -16.47,-52.92 -49.68,-136.8 -145.53,-281.16 -204.12,-374.94 -12.69,5.31 -22.5,12.15 -29.97,20.25 4.41,10.89 5.85,27.54 13.68,32.04 4.41,4.59 2.7,-0.81 2.7,-6.21 -0.09,-4.5 0.99,-9 7.38,-7.92 62.28,80.73 120.69,215.1 163.44,326.07 11.07,28.71 29.07,56.43 12.51,86.76 -11.88,-7.38 0.99,-25.29 -0.36,-36.18 -55.53,-117.18 -110.16,-236.07 -176.4,-332.82 -3.6,-8.91 -13.41,-6.12 -18.36,-12.42 -7.56,-21.51 -12.87,-41.76 -15.21,-60.48 8.91,-9.18 16.56,-18.9 36.45,-22.32 108.54,98.01 167.4,284.31 241.29,435.96 -22.86,22.95 8.37,74.43 -25.92,91.44" /><path
         id="path90"
         style="fill:#918f8f;fill-opacity:1;fill-rule:nonzero;stroke:none"
         d="m 1648.89,1519.52 c -8.37,4.52 -15.23,9.85 -20.79,15.88 4.41,10.89 5.85,27.54 13.68,32.04 1.17,1.22 1.91,1.73 2.36,1.73 1.26,0 0.34,-3.97 0.34,-7.94 -0.08,-4.04 0.78,-8.08 5.59,-8.08 0.54,0 1.14,0.05 1.79,0.16 62.28,80.73 120.69,215.1 163.44,326.07 11.07,28.71 29.07,56.43 12.51,86.76 -0.7,-0.43 -1.31,-0.91 -1.84,-1.41 -1.54,3.1 -3.34,6.13 -5.45,9.06 -1.47,1.95 -3.09,3.85 -4.83,5.7 0.68,0.19 1.36,0.38 2.04,0.6 -23.76,26.28 -69.39,41.04 -86.76,70.56 8.82,23.76 30.96,21.78 46.44,32.67 3.28,-8.72 9.53,-17.95 17.82,-26.27 2.42,-7.85 6.61,-15.01 11.88,-21.61 13.05,-16.29 38.07,-27.99 46.89,-47.16 8.64,-18.63 4.77,-51.12 0.63,-70.74 -4.77,-22.41 -14.31,-46.98 -23.67,-67.95 -20.07,-44.82 -42.48,-90.63 -64.53,-135.36 -20.52,-41.85 -40.86,-81.99 -64.89,-122.04 -11.07,-18.54 -22.41,-37.17 -35.01,-54.72 -4.14,-5.79 -10.63,-13.68 -17.64,-17.95" /><path
         id="path92"
         style="fill:#231f20;fill-opacity:1;fill-rule:nonzero;stroke:none"
         d="m 1815.69,1979.49 c -17.28,18.44 -46.71,31.93 -69.21,35.21 -1.19,0.89 -2.37,1.8 -3.54,2.74 -6.66,5.4 -21.06,11.88 -22.5,20.61 -2.25,12.78 15.3,37.62 26.55,42.93 5.45,2.53 11.44,3.34 17.6,3.34 9.83,0 20.07,-2.05 29.2,-2.44 -1.59,-9.01 -0.9,-17.24 1.44,-24.83 -8.29,8.32 -14.54,17.55 -17.82,26.27 -15.48,-10.89 -37.62,-8.91 -46.44,-32.67 17.37,-29.52 63,-44.28 86.76,-70.56 -0.68,-0.22 -1.36,-0.41 -2.04,-0.6" /><path
         id="path94"
         style="fill:#231f20;fill-opacity:1;fill-rule:nonzero;stroke:none"
         d="m 1639.56,1516.48 c -2.41,0 -4.79,0.71 -7.07,2.35 0.13,0.3 0.26,0.61 0.38,0.91 -7.8,5.09 -9.1,16.83 -6.71,29.12 2.33,9.34 6.6,19.01 10.57,26.18 1.59,2.39 3.29,4.54 5.04,6.35 0.74,-0.41 1.55,-0.61 2.42,-0.61 16.67,0.01 54.74,72.6 62.39,86.29 10.76,19.12 21.02,38.43 30.97,57.96 10.27,18.02 19.93,36.32 28.61,55.08 10.94,23.69 33.25,63.46 48.51,101.31 8.67,19.67 15.38,39.2 16.74,56.28 0.83,10.18 -0.93,19.16 -5.38,26.89 -0.02,0.05 -0.04,0.09 -0.06,0.14 0.53,0.5 1.14,0.98 1.84,1.41 16.56,-30.33 -1.44,-58.05 -12.51,-86.76 -42.75,-110.97 -101.16,-245.34 -163.44,-326.07 -0.65,-0.11 -1.25,-0.16 -1.79,-0.16 -4.81,0 -5.67,4.04 -5.59,8.08 0,3.97 0.92,7.94 -0.34,7.94 -0.45,0 -1.19,-0.51 -2.36,-1.73 -7.83,-4.5 -9.27,-21.15 -13.68,-32.04 5.56,-6.03 12.42,-11.36 20.79,-15.88 -3.06,-1.86 -6.22,-3.04 -9.33,-3.04" /><path
         id="path96"
         style="fill:#ca7f70;fill-opacity:1;fill-rule:nonzero;stroke:none"
         d="m 1610.22,1478.75 18.09,34.76 c 0.47,-0.4 0.95,-0.8 1.45,-1.19 -2.51,-5.84 -5.17,-11.68 -7.95,-17.53 -3.88,-5.25 -7.75,-10.59 -11.59,-16.04" /><path
         id="path98"
         style="fill:#ca7f70;fill-opacity:1;fill-rule:nonzero;stroke:none"
         d="m 1197.4,832.859 c -0.84,0 -1.63,0.09 -2.38,0.27 -4.85,1.18 -8.45,3.09 -11.03,5.562 7.12,20.848 16.71,42.489 24.89,61.309 15.39,35.551 34.47,69.391 52.56,103.59 27.72,52.56 46.26,108.18 72.09,161.01 28.44,58.05 59.13,115.02 89.28,172.26 7.74,14.76 15.93,29.52 23.31,44.55 1.48,3.1 6.2,18.93 9.83,27.43 18.99,-9.95 39.9,-19.55 58.15,-19.55 8.67,0 16.75,2.17 23.73,7.51 2.67,5.49 -0.35,7.99 -5.18,9.53 9.99,6.13 14.83,15.44 19.47,25.61 4.55,0.33 8.8,1.25 12.26,3.74 2.16,27.27 -32.22,16.11 -47.52,22.05 -9.9,3.87 -18.3,9.53 -25.81,16 1.93,23.6 30.97,66.72 37.78,83.36 62.45,153.79 127.88,307.47 202.87,451.47 10.19,-2.88 19.81,-8.61 29.42,-14.34 13.73,-8.13 27.46,-16.31 42.94,-16.31 2.89,0 5.84,0.3 8.87,0.92 5.63,-4.1 9.96,-8.81 13.03,-14.11 -8.55,-8.05 2.76,-24.51 1.49,-34.76 -55.53,-117.18 -110.16,-236.07 -176.4,-332.82 -3.6,-8.91 -13.41,-6.12 -18.36,-12.42 -7.56,-21.51 -12.87,-41.76 -15.21,-60.48 3.53,-3.63 6.86,-7.35 10.83,-10.73 l -18.09,-34.76 c -86.8,-122.96 -162.99,-293.32 -246.36,-430.07 -34.47,-56.43 -68.22,-114.481 -106.2,-166.231 -12.49,-16.937 -44.11,-49.59 -60.26,-49.59" /><path
         id="path100"
         style="fill:#1b0d08;fill-opacity:1;fill-rule:nonzero;stroke:none"
         d="m 1176.48,812.52 c 1.84,8.39 4.45,17.21 7.51,26.171 2.58,-2.472 6.18,-4.382 11.03,-5.562 0.75,-0.18 1.54,-0.27 2.38,-0.27 16.15,0 47.77,32.653 60.26,49.59 37.98,51.75 71.73,109.801 106.2,166.231 83.37,136.75 159.56,307.11 246.36,430.07 3.84,5.45 7.71,10.79 11.59,16.04 -18.25,-38.32 -41.84,-76.69 -62.47,-112.03 -59.85,-102.78 -115.02,-207 -175.77,-309.33 -47.88,-80.641 -87.66,-163.078 -155.07,-229.231 -7.65,-7.648 -50.58,-25.019 -52.02,-31.679 m 337.62,576.77 c -18.25,0 -39.16,9.6 -58.15,19.55 1.22,2.85 2.32,4.88 3.13,5.33 1.51,0.87 3.31,1.25 5.34,1.25 6.37,0 15.02,-3.67 24.09,-7.28 9.14,-3.64 18.79,-7.28 27.15,-7.28 2.18,0 4.27,0.24 6.24,0.8 4.16,1.21 7.69,2.79 10.75,4.67 4.83,-1.54 7.85,-4.04 5.18,-9.53 -6.98,-5.34 -15.06,-7.51 -23.73,-7.51 m 38.02,42.65 c 1.83,4.01 3.62,8.16 5.69,12.29 -17.46,10.44 -54.36,-1.62 -65.34,19.71 -1.34,2.61 -1.74,5.94 -1.42,9.79 7.51,-6.47 15.91,-12.13 25.81,-16 15.3,-5.94 49.68,5.22 47.52,-22.05 -3.46,-2.49 -7.71,-3.41 -12.26,-3.74 m 251.94,545.97 c -15.48,0 -29.21,8.18 -42.94,16.31 -9.61,5.73 -19.23,11.46 -29.42,14.34 1.19,2.3 2.39,4.61 3.59,6.9 0.43,0.01 0.87,0.02 1.31,0.02 3.08,0 6.4,-0.27 9.88,-0.78 18.74,-13.91 39.67,-20.46 59.64,-31.55 2.45,-1.35 4.72,-2.79 6.81,-4.32 -3.03,-0.62 -5.98,-0.92 -8.87,-0.92" /><path
         id="path102"
         style="fill:#1b0d08;fill-opacity:1;fill-rule:nonzero;stroke:none"
         d="m 1629.76,1512.32 c -0.5,0.39 -0.98,0.79 -1.45,1.19 -3.97,3.38 -7.3,7.1 -10.83,10.73 2.34,18.72 7.65,38.97 15.21,60.48 4.95,6.3 14.76,3.51 18.36,12.42 66.24,96.75 120.87,215.64 176.4,332.82 1.27,10.25 -10.04,26.71 -1.49,34.76 0.02,-0.04 0.05,-0.08 0.07,-0.13 0.47,-0.95 0.91,-1.9 1.33,-2.86 7.86,-18.43 0.05,-48.7 -12.69,-80.31 -12.57,-28.53 -29.25,-57.37 -39.69,-79.53 -12.23,-26.03 -24.57,-51.62 -37.43,-76.86 -26.48,-46.48 -57,-91.2 -85.15,-137.7 -3.55,-0.18 -7.2,-2.4 -10.63,-5.94 -0.28,0.15 -0.54,0.33 -0.8,0.54 -1.29,-1.84 -2.74,-4.19 -4.24,-6.89 -4.84,-7.3 -8.76,-16.89 -10.57,-26.18 -2.26,-9.05 -2.69,-17.79 0.77,-23.63 1.75,-2.91 3.62,-5 5.56,-6.4 -0.89,-2.17 -1.8,-4.34 -2.73,-6.51" /><path
         id="path104"
         style="fill:#72463c;fill-opacity:1;fill-rule:nonzero;stroke:none"
         d="m 1825.96,1964.72 c -3.07,5.3 -7.4,10.01 -13.03,14.11 0.91,0.19 1.83,0.41 2.76,0.66 1.74,-1.85 3.36,-3.75 4.83,-5.7 2.11,-2.93 3.91,-5.96 5.45,-9.06 -0.01,0 -0.01,0 -0.01,-0.01" /><path
         id="path106"
         style="fill:#1b0d08;fill-opacity:1;fill-rule:nonzero;stroke:none"
         d="m 1812.93,1978.83 c -2.09,1.53 -4.36,2.97 -6.81,4.32 -19.97,11.09 -40.9,17.64 -59.64,31.55 22.5,-3.28 51.93,-16.77 69.21,-35.21 -0.93,-0.25 -1.85,-0.47 -2.76,-0.66" /><path
         id="path108"
         style="fill:#1b0d08;fill-opacity:1;fill-rule:nonzero;stroke:none"
         d="m 1632.49,1518.83 c -1.94,1.4 -3.81,3.49 -5.56,6.4 -3.46,5.84 -3.03,14.58 -0.77,23.63 -2.39,-12.29 -1.09,-24.03 6.71,-29.12 -0.12,-0.3 -0.25,-0.61 -0.38,-0.91 m 4.24,56.21 c 1.5,2.7 2.95,5.05 4.24,6.89 0.26,-0.21 0.52,-0.39 0.8,-0.54 -1.75,-1.81 -3.45,-3.96 -5.04,-6.35 m 100.82,149.99 c 12.86,25.24 25.2,50.83 37.43,76.86 10.44,22.16 27.12,51 39.69,79.53 -15.26,-37.85 -37.57,-77.62 -48.51,-101.31 -8.68,-18.76 -18.34,-37.06 -28.61,-55.08 m 88.48,239.56 c -0.02,0.05 -0.05,0.09 -0.07,0.13 0,0.01 0,0.01 0.01,0.01 0.02,-0.05 0.04,-0.09 0.06,-0.14" /><path
         id="path110"
         style="fill:#ca7f70;fill-opacity:1;fill-rule:nonzero;stroke:none"
         d="m 1857.12,2046.37 c -0.1,0.38 -0.16,0.79 -0.15,1.22 0.07,0.08 0.14,0.16 0.21,0.25 -0.03,-0.5 -0.05,-0.99 -0.06,-1.47" /><path
         id="path112"
         style="fill:#1b0d08;fill-opacity:1;fill-rule:nonzero;stroke:none"
         d="m 1844.36,2039.23 c -13.39,0 -18.22,6.5 -18.44,15.6 5.31,-4.79 12.62,-8.79 22.32,-11.74 6.93,33.57 31.86,70.83 42.75,113.58 v 0 0 c -2.19,4.17 -8.08,6.4 -14.6,8.31 1.29,2.37 2.59,4.7 3.89,6.99 l 1.17,9.45 c 53.39,-19.01 -21.83,-95.33 -24.27,-133.58 -0.07,-0.09 -0.14,-0.17 -0.21,-0.25 -0.01,-0.43 0.05,-0.84 0.15,-1.22 -0.02,-1.95 0.15,-3.81 0.57,-5.53 -5.17,-1.1 -9.59,-1.61 -13.33,-1.61" /><path
         id="path114"
         style="fill:#ca7f70;fill-opacity:1;fill-rule:nonzero;stroke:none"
         d="m 1848.24,2043.09 c -9.7,2.95 -17.01,6.95 -22.32,11.74 -0.3,12.28 7.79,29.3 14.58,41.54 12.64,22.85 24.19,47.23 35.89,68.61 6.52,-1.91 12.41,-4.14 14.6,-8.31 v 0 c -10.89,-42.75 -35.82,-80.01 -42.75,-113.58" /></g></g></svg>