<?xml version="1.0" encoding="UTF-8" standalone="no"?>
<svg
   xmlns:dc="http://purl.org/dc/elements/1.1/"
   xmlns:cc="http://creativecommons.org/ns#"
   xmlns:rdf="http://www.w3.org/1999/02/22-rdf-syntax-ns#"
   xmlns:svg="http://www.w3.org/2000/svg"
   xmlns="http://www.w3.org/2000/svg"
   viewBox="0 0 361.61334 670.66669"
   height="670.66669"
   width="361.61334"
   xml:space="preserve"
   id="svg2"
   version="1.1"><metadata
     id="metadata8"><rdf:RDF><cc:Work
         rdf:about=""><dc:format>image/svg+xml</dc:format><dc:type
           rdf:resource="http://purl.org/dc/dcmitype/StillImage" /></cc:Work></rdf:RDF></metadata><defs
     id="defs6" /><g
     transform="matrix(1.3333333,0,0,-1.3333333,0,670.66667)"
     id="g10"><g
       transform="scale(0.1)"
       id="g12"><path
         id="path14"
         style="fill:none;stroke:#0e0f0e;stroke-width:30;stroke-linecap:round;stroke-linejoin:round;stroke-miterlimit:10;stroke-dasharray:none;stroke-opacity:1"
         d="m 2028.93,1992.64 c -1.67,2.85 -3.21,5.6 -4.64,8.24 -0.63,-2.78 -1.34,-5.72 -2.16,-8.85 -5.45,-20.92 -15.54,-48.99 -34.95,-78.13 -25.99,-39.07 -57.45,-63.15 -79.71,-76.92 v -0.03 c -4.52,-2.79 -8.67,-5.15 -12.3,-7.15 3.39,-0.03 7.88,-0.18 13.24,-0.67 20.28,-1.81 53.03,-8.24 85.35,-30.89 30.98,-21.71 47.42,-48.41 55.09,-63.37 0.3,-0.57 0.58,-1.12 0.84,-1.64 0.13,0.68 0.25,1.34 0.37,2.03 3.52,18.56 12.55,52.09 38.32,85.33 18.86,24.27 39.81,39.59 55.03,48.69 2.39,1.45 4.67,2.72 6.76,3.88 -2.22,1.24 -4.48,2.54 -6.83,3.9 -17.7,10.5 -38.89,25.35 -60.2,46.06 -25.31,24.59 -42.63,49.51 -54.21,69.52 z m -6.8,-0.61 c -45.71,-5.7 -88.58,-40.68 -106.72,-92.5 -7.33,-21.01 -9.78,-42.35 -7.94,-62.55 m 142.59,-101.72 c 37.08,12.44 69.64,44.06 84.83,87.5 5.43,15.53 8.19,31.24 8.52,46.52 m -0.07,7.78 c -1.6,50.12 -29.37,94.39 -74.15,110.03 -13.22,4.61 -26.83,6.37 -40.26,5.55 m -120.52,-163.51 c 6.37,-43.29 32.78,-80.01 72.68,-93.95 22.34,-7.83 45.84,-7.43 67.76,-0.31 m 15.65,2040.52 0.08,-11.49 0.09,-9.15 m -1574.256,-168.69 60.848,6.46 m -0.18,-27.5 0.18,27.5 0.125,18.7 m 1185.003,-55.45 -14.13,-728.03 m 259.71,758.34 -0.03,-0.75 -17.19,-707.8 m 434.87,104.47 39.3,696.25 0.03,0.7 m 258.12,18.64 -39.74,5.07 m 1.39,21.19 -0.05,-0.76 v -0.06 l -1.34,-20.37 -1.4,-21.32 m -434,-51.29 -0.03,-0.76 -14.61,-702.01 m -723.51,-148.5 1.33,410.47 1.15,350.57 0.13,31.92 0.06,22.5 0.21,63.7 0.15,45.48 0.07,16.76 v 0.03 l 1.81,557.4 0.22,66.94 0.42,140.92 v 1.85 m -345.63,512.37 c 0,0 0,-0.24 0,-0.73 0.37,-18.94 7.37,-399.04 9.74,-507.73 0,-0.39 0.03,-0.73 0.03,-1.09 v -0.03 c 0.03,-2 0.09,-4 0.12,-6.01 1.18,-54.96 2.39,-109.93 3.58,-164.89 0.51,-23.5 1.03,-47 1.51,-70.49 4.7,-215.66 9.37,-431.31 14.01,-646.93 1.85,-85.13 3.7,-170.27 5.55,-255.37 m -365.697,127.92 -1.184,33.16 -2.546,70.49 -0.696,18.59 -0.422,11.76 -1.82,50.3 -20.133,557.39 -2.695,74.61 -27.379,708.32 -0.031,0.73 M 989.172,2405.72 955.25,3424.85 M 2461.29,812.242 c 18.4,5.039 36.81,10.09 55.21,15.156 m -99.23,-37.289 c -28.14,-7.937 -56.24,-15.89 -84.38,-23.859 M 2072.83,660.801 c 39.96,12.129 79.95,24.289 119.91,36.449 M 1944.77,596.02 c -40.6,-16.219 -83.87,-25.801 -127.52,-28.239 -13.34,-0.75 -27.2,-0.929 -39.23,-6.781 -12.01,-5.82 -21.59,-19.32 -18.05,-32.199 M 1178.06,306.559 c 4.27,21.812 28.16,34.453 50.32,36.23 22.14,1.801 44.21,-4.059 66.43,-4.027 42.84,0.039 82.28,21.527 120.06,41.718 42.59,22.77 85.71,44.629 128.79,66.489 36.53,18.523 73.06,37.043 109.57,55.57 m -5.91,77.07 c -13.8,6.942 -30.57,-0.089 -42.81,-9.457 -12.28,-9.402 -23.2,-21.402 -37.87,-26.113 -20.71,-6.641 -43.11,2.953 -64.79,1.133 -50.97,-4.313 -79.01,-67.25 -128.88,-78.621 -32.05,-7.332 -68.85,8.039 -97.02,-8.942 -12.58,-7.578 -21.49,-20.757 -35.08,-26.308 -15.18,-6.192 -32.5,-1.371 -48.75,-3.641 -16.22,-2.281 -33.17,-19.551 -24.25,-33.289 m 1267.07,616.609 c -27.13,-8.04 -54.26,-16.082 -81.37,-24.101 m -137.52,-56.488 c 26.26,3.91 51.87,11.789 75.8,23.308 m -146.56,-64 c -17.07,4.852 -35.38,-1.597 -50.63,-10.668 -15.22,-9.101 -28.95,-20.832 -45.14,-28.039 -26.32,-11.742 -56.3,-10.344 -84.93,-13.594 -28.62,-3.207 -59.75,-13.609 -73.15,-39.109 m -95.05,-37.93 C 1750.42,760.25 1704.65,743.332 1669.63,713.5 M 1531.8,681.93 c -57.66,-57.141 -160.14,-37.348 -223.92,-87.551 -10.22,-8.039 -19.53,-17.918 -31.84,-22.047 -13.79,-4.633 -28.83,-1.211 -42.96,2.148 -14.16,3.34 -29.25,6.59 -42.93,1.641 -13.67,-4.941 -24.13,-21.492 -17.28,-34.312 m 1037.54,504.611 c 33.05,11.67 66.07,23.37 99.08,35.05 m -202.25,-88.411 c -27.59,13.971 -61.4,6.543 -89.13,-7.071 -26.99,-13.218 -50.82,-31.617 -73.37,-51.629 -14.13,-12.519 -33.51,-16.461 -51.76,-11.668 -0.09,0.028 -0.18,0.059 -0.27,0.079 -9.34,2.351 -19.22,0.402 -28.5,-2.09 -35.65,-9.578 -69.09,-27.371 -96.89,-51.66 m -94.36,-38.86 c -27.64,-11.64 -55.29,-23.25 -82.92,-34.871 -17.4,-7.297 -35.05,-14.699 -53.78,-16.98 -18.34,-2.227 -37.08,0.55 -55.33,-2.297 -26.41,-4.121 -50.63,-20.59 -64.18,-43.633 m -85.8,-6 c 0.3,-14.77 -18.92,-21.738 -33.53,-19.578 -14.61,2.179 -29.5,8.969 -43.54,4.418 -11.98,-3.91 -19.86,-15.008 -29.11,-23.547 -9.27,-8.531 -23.79,-14.832 -34.04,-7.461 -5.13,3.668 -7.73,9.82 -11.85,14.578 -8.04,9.242 -22.38,12.281 -33.45,7.102 -11.06,-5.192 -17.91,-18.141 -15.97,-30.2 M 2603.18,1307.36 972.895,731.102 M 2633.77,1860.3 2009.83,2279.08 973.074,1118.66 l -4.336,-4.85 -508.64,398.23 m 348.715,2065.95 c -10.336,0.97 -21.313,1.46 -32.622,1.46 -19.976,0 -38.773,-1.55 -55.269,-4.28 -37.289,-6.18 -62.668,-18.43 -62.668,-32.53 0,-9.52 11.613,-18.22 30.652,-24.74 21.555,-7.4 52.696,-12.06 87.285,-12.06 12.25,0 24.043,0.57 35.168,1.66 m 1395.081,245.52 h 0.03 0.03 c 9.79,1.63 22.74,5.36 31.01,8.27 h 0.03 m 15.01,9.58 c -0.18,1.94 -0.46,4.49 -0.46,4.52 0,14.37 -41.98,26.05 -93.8,26.05 -51.81,0 -93.79,-11.68 -93.79,-26.05 0,-9.58 18.64,-17.95 46.37,-22.46 m -130.96,25.83 c -14.68,0 -28.57,-0.94 -40.93,-2.61 -31.29,-4.22 -52.88,-13.13 -52.88,-23.43 0,-2.91 1.73,-5.74 4.91,-8.34 12.56,-10.31 47.6,-17.71 88.9,-17.71 51.8,0 93.79,11.67 93.79,26.05 0,3.99 -3.27,7.82 -9.12,11.18 -15.09,8.79 -47.32,14.86 -84.67,14.86 z m -189.58,-16.07 c -55.48,0 -100.47,-12.49 -100.47,-27.89 0,-3.86 2.81,-7.52 7.88,-10.86 15.27,-10 50.99,-17.03 92.59,-17.03 55.44,0 100.44,12.49 100.44,27.89 0,3.12 -1.85,6.12 -5.28,8.94 -13.43,11.01 -50.99,18.95 -95.16,18.95 z m -303.52,-59.27 c 13.07,-12.61 54.94,-21.83 104.6,-21.83 60.09,0 108.81,13.52 108.81,30.19 0,4.19 -3.03,8.16 -8.55,11.77 -16.52,10.85 -55.17,18.46 -100.26,18.46 -49.57,0 -91.41,-9.22 -104.53,-21.8 m -681.005,-61.57 c -19.223,-6.55 -30.926,-15.25 -30.926,-24.84 0,-2.78 1,-5.48 2.883,-8.09 v -0.03 m 6.516,-6.33 h 0.031 c 5.641,-4.1 13.582,-7.83 23.316,-11.01 m 1429.815,152.95 c -1.09,-1.3 -1.87,-2.6 -2.33,-3.97 -0.3,-0.91 -0.45,-1.82 -0.45,-2.76 0,-4.7 3.94,-9.12 10.94,-13.04 0.12,-0.05 0.24,-0.11 0.37,-0.18 0.42,-0.27 0.88,-0.51 1.36,-0.72 0.09,-0.06 0.21,-0.13 0.33,-0.18 17.4,-8.8 50.6,-14.71 88.65,-14.71 19.59,0 37.93,1.58 53.42,4.3 h 0.03 c 0.27,0.03 0.49,0.07 0.76,0.13 m 38.78,12.73 c 5.57,3.58 8.67,7.52 8.67,11.67 0,15.92 -45.51,28.86 -101.66,28.86 -14.13,0 -27.62,-0.84 -39.83,-2.3 -0.22,-0.03 -0.4,-0.06 -0.61,-0.09 -17.62,-2.18 -32.63,-5.7 -43.39,-10.16 -0.14,-0.06 -0.3,-0.12 -0.46,-0.18 -6.7,-2.82 -11.7,-5.97 -14.55,-9.4 m -16.58,-61.48 c 24.16,5.79 39.72,14.88 39.72,25.13 0,5.61 -4.7,10.92 -12.95,15.5 m -2.06,1.08 c -9.51,4.86 -23.07,8.83 -39.17,11.5 m -0.06,0 c -14.16,2.33 -30.28,3.67 -47.41,3.67 -17.44,0 -33.84,-1.37 -48.16,-3.76 -31.85,-5.4 -53.5,-15.89 -53.5,-27.99 0,-5.76 4.88,-11.13 13.45,-15.79 17.56,-9.53 50.48,-15.92 88.21,-15.92 13.73,0 26.85,0.85 38.8,2.4 0.03,0 0.03,0 0.06,0 m -162.29,-38.84 c 28.8,6.09 47.75,16.4 47.75,28.1 0,7.31 -7.43,14.13 -20.1,19.68 -18.73,8.21 -48.97,13.73 -83.37,14.28 -1.79,0.03 -3.59,0.03 -5.4,0.03 -60.12,0 -108.87,-15.22 -108.87,-33.99 0,-4.97 3.42,-9.7 9.61,-13.98 17.1,-11.79 55.12,-20.01 99.26,-20.01 7.85,0 15.49,0.28 22.86,0.77 m -172.93,-37.05 c 0.03,0.02 0.06,0.02 0.09,0.02 37.62,6.13 63.3,18.44 63.3,32.6 0,7.61 -7.43,14.7 -20.13,20.58 -21.22,9.83 -57.09,16.25 -97.81,16.25 -65.12,0 -117.93,-16.49 -117.93,-36.83 0,-2.19 0.6,-4.31 1.76,-6.37 h 0.02 m 8.13,-8.43 v -0.03 c 18.28,-12.91 59.76,-21.98 108.02,-21.98 0.85,0 1.7,0 2.55,0.03 h 0.03 m -285.99,-16.22 c 17.4,-3.18 37.63,-5 59.21,-5 6.7,0 13.31,0.18 19.7,0.52 55.77,2.94 98.24,18.06 98.24,36.31 0,2.16 -0.61,4.28 -1.76,6.34 m 0,0.03 c -1.61,2.91 -4.4,5.76 -8.13,8.43 m -0.02,0 c -18.26,12.94 -59.73,22.01 -108.03,22.01 -21.5,0 -41.65,-1.79 -59,-4.94 m -708.828,-32.23 c -18.016,13.1 -59.82,22.32 -108.512,22.32 -65.121,0 -117.933,-16.5 -117.933,-36.81 0,-20.35 52.812,-36.81 117.933,-36.81 18.344,0 35.684,1.31 51.149,3.64 39.535,5.94 66.789,18.56 66.789,33.17 0,2.79 -1,5.52 -2.879,8.13 m -0.031,0 c -1.547,2.18 -3.758,4.3 -6.516,6.33 m 438.428,-473.26 c 35.11,-7.16 84.68,-16.13 131.48,-12.37 53.15,4.24 109.42,23.47 137.37,49.2 m -676.993,407.33 c 21.317,-10.65 93.383,-41.63 200.033,-36.3 116.49,5.83 157.9,35.96 164.54,41.51 0.7,0.54 1,0.85 1,0.85 m 1212.26,121.21 -1.57,-24.07 m -218.18,-20.83 -0.39,-25.47 m -214.04,-23.43 -0.06,-25.84 m -242.49,-18.13 -0.09,-12.97 m 680.67,156.92 c -2.51,-2 -3.85,-4.06 -3.85,-6.18 0,-14.37 61.07,-26.01 136.37,-26.01 73.88,0 134.07,11.18 136.35,25.19 m 0,0.06 c 0.03,0.25 0.05,0.52 0.05,0.76 0,14.37 -61.06,26.04 -136.4,26.04 -35.93,0 -68.61,-2.63 -92.95,-7 -19.16,-3.4 -33.14,-7.85 -39.54,-12.86 m -192,-34.4 c -19.74,-4.56 -31.63,-10.34 -31.63,-16.68 0,-14.37 61.04,-26.04 136.38,-26.04 74.06,0 134.37,11.3 136.34,25.34 m 0.03,0.7 c 0,8.52 -21.44,16.07 -54.57,20.83 -22.8,3.24 -51.12,5.18 -81.8,5.18 -30.59,0 -58.85,-1.91 -81.62,-5.15 -8.52,-1.24 -16.25,-2.64 -23.07,-4.18 m 24.04,-65.58 c 0,9.64 -22.13,18.19 -56.12,23.43 -22.22,3.43 -49.51,5.46 -78.97,5.46 -18.14,0 -35.45,-0.76 -51.24,-2.15 -14.13,-1.25 -27.01,-2.98 -38.26,-5.12 -27.95,-5.28 -45.57,-13.01 -45.57,-21.62 0,-15.98 60.48,-28.9 135.07,-28.9 73.46,0 133.21,12.53 135.06,28.14 m -449.49,-18.83 c -37.99,-5.12 -63.19,-14.13 -63.19,-24.38 0,-15.97 61.07,-28.89 136.38,-28.89 74.12,0 134.45,12.52 136.34,28.14 m -157.53,29.29 c -18.9,-0.61 -36.48,-2.07 -51.97,-4.16 m 209.53,-24.38 c 0,6.89 -11.31,13.19 -30.26,18.13 -25.02,6.59 -63.25,10.77 -106.11,10.77 -7.19,0 -14.22,-0.12 -21.1,-0.34 m -338.24,-74.82 c 24.45,-7.82 66.25,-12.94 113.76,-12.94 75.31,0 136.37,12.91 136.37,28.89 0,6.49 -10.13,12.49 -27.26,17.34 -24.89,7 -64.51,11.55 -109.11,11.55 -11.85,0 -23.35,-0.33 -34.32,-0.91 -32.89,-1.82 -60.97,-6.15 -79.31,-12.01 m -332.8,912.36 c 10.25,-12.37 81.28,-21.92 167.41,-21.92 89.29,0 162.32,10.28 168.33,23.29 0,0.03 0.03,0.03 0.03,0.06 0.24,0.54 0.36,1.12 0.36,1.66 0,13.83 -75.52,25.02 -168.72,25.02 -84,0 -153.68,-9.1 -166.56,-21.01 -0.4,-0.36 -0.73,-0.7 -0.97,-1.06 M 949.672,5015 c -77.797,0 -144.859,-3.79 -175.629,-9.28 -0.035,0 -0.066,0 -0.094,0 -11.488,-2.06 -17.922,-4.36 -17.922,-6.76 0,-8.85 86.684,-16.03 193.645,-16.03 106.958,0 193.638,7.18 193.638,16.03 0,8.85 -86.68,16.04 -193.638,16.04 z M 1980.87,4320.72 1938.98,3776.15 M 623.754,4201.84 15,4231.98 m 770.742,-15.95 -161.988,-14.19 -133.34,-615.78 -50.84,-234.63 v -0.07 l -20.738,-95.83 m 1069.854,1022.08 492.18,43.11 466.17,40.84 M 783.047,4290.64 15,4231.98 129.512,3291.7 442.758,3236.73 m 1853.182,544.3 151.1,580.53 h -735.33 l -222.8,-17.01 m -998.496,-758.49 60.668,-21.04 137.613,-47.72 123.848,-42.96 142.707,-49.49 91.41,-1.75 c 55.63,-1.06 104.69,-31.26 131.58,-76.68 10.55,-17.76 17.67,-37.86 20.49,-59.48 l 17.53,-134.52 33.86,-259.95 c 11.07,-85.01 92.02,-142.73 176,-125.51 l 57.66,11.82 238.48,48.96 9.76,2.01 231.61,47.54 1.12,0.24 240.62,49.36 1.92,0.39 113.99,23.4 c 27.29,5.58 52.79,15.77 75.68,29.65 0.9,0.55 1.78,1.1 2.66,1.67 59.21,36.9 100.69,98.9 110.31,170.87 l 53.14,396.8 c 7.55,56.52 42.17,105.18 91.77,131.13 0.37,0.18 0.73,0.36 1.09,0.54 7.13,3.73 14.58,6.95 22.29,9.65 l 18.85,6.6 -35.38,-795.87 v -0.03 l -4.06,-91.95 m -2218.056,541.62 3.184,-114.63 1.726,-62.78 v -0.03 l 1.727,-61.52 v -0.03 M 972.59,15 l 0.305,716.102 0.179,387.558 0.547,1283.3 m -546.176,735.69 18.766,-25.25 m 0,-0.03 527.41,-710.41 15.551,3.76 1668.458,404.02 11.64,2.81 m -7.58,89.14 26.59,-56.06 -54.51,-985.33 -30.59,-552.94 L 2569.95,706.73 972.59,15 508.426,383.629 461.25,1485.09 l -1.152,26.95 -70.008,1633.95 54.394,27.93" /><path
         id="path16"
         style="fill:#0e0f0e;fill-opacity:1;fill-rule:nonzero;stroke:none"
         d="m 1572.28,1440.25 -79.35,-17.08 -17.85,-3.84 -83.98,-18.07 8.31,-38.53 76.49,16.45 4.79,-242.48 39.41,0.79 -4.94,250.16 65.43,14.06 -8.31,38.54" /><path
         id="path18"
         style="fill:#0e0f0e;fill-opacity:1;fill-rule:nonzero;stroke:none"
         d="m 1695.31,1276.95 c 0,-15.83 -0.42,-28.68 -5.77,-38.01 -4.69,-8.23 -14.52,-13.89 -24,-13.89 h -0.33 c -0.65,0 -2.46,0.15 -5.52,1.15 -11.41,3.82 -20.35,13.89 -23.35,26.32 -9.43,38.87 -6.76,81.25 -2.61,128.63 v 0.03 c 1.19,13.53 2.4,27.53 7.25,38.75 4.15,9.58 11.46,16.71 18.58,18.1 1.01,0.21 1.98,0.3 2.97,0.3 10.13,0 20.83,-9.64 25.56,-19.64 7.28,-15.34 7.28,-34.74 7.28,-53.48 z m 28.43,158.6 c -11.91,25.16 -40.41,47.38 -71.84,41.14 -20.04,-3.97 -37.63,-19.35 -47.09,-41.08 -7.39,-17.1 -8.98,-35.11 -10.37,-51 -4.27,-49.05 -7.21,-96.78 3.61,-141.37 6.15,-25.49 25.01,-46.35 49.14,-54.42 6.13,-2.03 11.98,-3.1 17.47,-3.18 h 0.91 c 23.67,0 46.45,13.15 58.17,33.71 10.98,19.19 10.98,41.38 10.98,57.57 l 0.06,88.26 c 0,20.94 0,46.99 -11.04,70.37" /><path
         id="path20"
         style="fill:#0e0f0e;fill-opacity:1;fill-rule:nonzero;stroke:none"
         d="m 2489.94,1541.6 -0.12,-6.64 c -0.39,-24.77 -0.82,-49.54 -1.27,-74.31 -0.25,-14.25 -0.79,-25.81 -5.65,-33.99 -4.18,-7.03 -12.85,-11.73 -21.06,-11.52 -0.3,0 -1.43,0.1 -3.55,0.76 -10.37,3.21 -18.37,12.13 -20.88,23.28 -8.07,35.54 -5.01,74.38 -0.52,117.82 1.27,12.22 2.61,24.86 7.15,34.95 3.73,8.23 10.07,14.25 16.13,15.38 8.28,1.48 19.1,-6.25 24.1,-17.22 6.28,-13.95 5.98,-31.51 5.67,-48.51 z m 30.23,64.73 c -10.82,23.86 -37.32,45.2 -67.03,39.75 -19.02,-3.46 -35.84,-17.62 -44.99,-37.88 -7.19,-15.94 -8.92,-32.5 -10.43,-47.13 h -0.03 c -4.85,-46.97 -8.1,-89.23 1.27,-130.62 5.63,-24.79 23.89,-44.8 47.6,-52.21 4.94,-1.51 9.66,-2.36 14.07,-2.51 0.6,0 1.24,-0.04 1.87,-0.04 21.96,0 43.12,11.99 54.3,30.87 10.59,17.83 10.92,38.41 11.16,53.39 0.45,24.77 0.85,49.57 1.27,74.34 l 0.13,6.64 c 0.33,19.32 0.75,43.39 -9.19,65.4" /><path
         id="path22"
         style="fill:#0e0f0e;fill-opacity:1;fill-rule:nonzero;stroke:none"
         d="m 1870.22,1269.19 c -10.28,-4.64 -21.81,-6.7 -34.39,-7.85 l -5.24,70.49 c 13.97,2.6 25.86,2.55 36.13,-0.28 14.07,-3.84 28.65,-16.39 28.68,-30.77 0.04,-13.94 -13.03,-26.13 -25.18,-31.59 z m -48.91,186.43 c -0.03,0.54 -0.09,1.61 -0.15,2.72 0.4,0.04 0.85,0.04 1.33,0.04 13.95,0.03 25.75,-2.49 34.99,-7.52 9.52,-5.19 16.43,-13.41 18.52,-22.04 3.8,-15.59 -7.51,-32.47 -19.58,-41.57 -7.55,-5.64 -16.71,-10.28 -28.9,-14.61 z m 69.06,-90.99 c 23.14,23.02 29.02,52.45 23.96,73.47 -4.74,19.55 -18.58,36.83 -37.99,47.38 -15.19,8.24 -33.42,12.37 -54.15,12.3 -5.79,-0.05 -21.16,-0.2 -31.78,-12.12 -9.91,-11.3 -8.9,-25.83 -8.39,-32.9 l 6.58,-87.89 0.24,-3.42 1.15,-15.49 c 0,-0.28 0.03,-0.55 0.06,-0.79 0,-0.12 0.03,-0.25 0.03,-0.36 l 0.13,-1.46 7.72,-103.96 1.43,-19.31 0.06,-0.67 20.01,1.49 c 23.07,0.97 45.6,2.72 66.94,12.33 29.47,13.23 48.48,39.75 48.45,67.64 -0.09,29.38 -20.76,52.55 -44.45,63.76" /><path
         id="path24"
         style="fill:#0e0f0e;fill-opacity:1;fill-rule:nonzero;stroke:none"
         d="m 2012.62,1405.86 c 1.54,14.65 3.39,29.26 5.61,43.82 3.76,-12.56 7.43,-25.14 10.97,-37.76 -5.51,-2.03 -11.06,-4.06 -16.58,-6.06 z m 84.85,-99.23 c -6.42,26.95 -13.31,53.91 -20.55,80.8 -1.63,6.1 -3.3,12.19 -5,18.28 -12.13,43.75 -25.31,87.29 -39.45,130.16 l -37.9,-1.61 c -11.21,-47.17 -18.85,-95.11 -22.92,-143.37 -0.47,-5.64 -0.9,-11.31 -1.27,-16.98 -2,-29.59 -2.6,-59.3 -1.88,-89.02 l 0.52,-19.67 39.38,0.97 -0.49,19.71 c -0.63,25.59 -0.23,51.2 1.25,76.73 10.19,3.73 20.37,7.46 30.59,11.22 6.83,-25.41 13.31,-50.9 19.37,-76.37 l 4.58,-19.16 38.35,9.15 -4.58,19.16" /><path
         id="path26"
         style="fill:#0e0f0e;fill-opacity:1;fill-rule:nonzero;stroke:none"
         d="m 2212.39,1361.72 c -3.28,-4.52 -11.83,-6.23 -18.66,-3.74 -8.06,2.94 -15.54,10.75 -20.54,21.43 -5.18,11.05 -7.56,23.71 -10.14,39.1 -4.84,28.87 -8.59,54.84 -5.36,80.18 1.56,12.22 5.71,28.63 16.67,37.4 7.23,5.8 19.37,6.31 23.63,1 l 12.33,-15.37 30.75,24.66 -12.34,15.37 c -16.13,20.12 -51.73,26.97 -79.02,5.1 -16.8,-13.47 -27.56,-35.31 -31.12,-63.17 -3.9,-30.64 0.42,-60.86 5.59,-91.69 2.43,-14.47 5.44,-32.48 13.3,-49.29 9.53,-20.34 24.69,-35.16 42.73,-41.74 6.57,-2.4 13.41,-3.56 20.15,-3.56 17.39,0 34.13,7.64 43.94,21.19 l 11.56,15.96 -31.91,23.13 -11.56,-15.96" /><path
         id="path28"
         style="fill:#0e0f0e;fill-opacity:1;fill-rule:nonzero;stroke:none"
         d="m 2348.97,1396.26 c -3.27,-4.52 -11.82,-6.23 -18.65,-3.74 -8.06,2.94 -15.55,10.75 -20.55,21.43 -5.17,11.04 -7.55,23.7 -10.14,39.1 -4.84,28.87 -8.58,54.84 -5.35,80.19 1.56,12.21 5.71,28.62 16.66,37.4 7.23,5.79 19.38,6.3 23.63,0.99 l 12.34,-15.37 30.74,24.66 -12.32,15.37 c -16.14,20.12 -51.74,26.96 -79.04,5.1 -16.79,-13.47 -27.56,-35.31 -31.1,-63.16 -3.92,-30.64 0.41,-60.87 5.58,-91.7 2.42,-14.47 5.44,-32.49 13.31,-49.29 9.52,-20.33 24.69,-35.16 42.72,-41.74 6.57,-2.4 13.41,-3.56 20.16,-3.56 17.37,0 34.11,7.65 43.93,21.2 l 11.56,15.96 -31.92,23.12 -11.56,-15.96" /></g></g></svg>